<svg width="23" height="27" viewBox="0 0 23 27" fill="none" xmlns="http://www.w3.org/2000/svg">
<path d="M19.6078 0.772003H3.39046C1.5257 0.772003 0 2.45907 0 4.52104V22.4555C0 24.5175 1.5257 26.2045 3.39046 26.2045H19.6095C21.4743 26.2045 23 24.5175 23 22.4555V4.52104C22.9983 2.45907 21.4743 0.772003 19.6078 0.772003ZM19.39 14.3463H16.6607V25.2654H12.5769V14.3463H10.5341V10.5823H12.5769V8.3235C12.5769 5.25304 13.7296 3.42632 17.0099 3.42632H19.7367V7.18941H18.0313C16.7565 7.18941 16.6717 7.71709 16.6717 8.6984L16.6607 10.5823H19.7502L19.39 14.3463Z" fill="white"/>
</svg>
