<svg width="28" height="27" viewBox="0 0 28 27" fill="none" xmlns="http://www.w3.org/2000/svg">
<path d="M11.2 18.9381L18.466 13.4883L11.2 8.03844V18.9381ZM27.384 4.71404C27.566 5.56785 27.692 6.71231 27.776 8.1656C27.874 9.61889 27.916 10.8723 27.916 11.9623L28 13.4883C28 17.4666 27.776 20.3914 27.384 22.2625C27.034 23.8974 26.222 24.9511 24.962 25.4052C24.304 25.6414 23.1 25.8049 21.252 25.9139C19.432 26.041 17.766 26.0955 16.226 26.0955L14 26.2045C8.134 26.2045 4.48 25.9139 3.038 25.4052C1.778 24.9511 0.966 23.8974 0.616 22.2625C0.434 21.4087 0.308 20.2642 0.224 18.8109C0.126 17.3576 0.0839999 16.1042 0.0839999 15.0142L0 13.4883C0 9.50989 0.224 6.58515 0.616 4.71404C0.966 3.0791 1.778 2.02546 3.038 1.57131C3.696 1.33515 4.9 1.17166 6.748 1.06266C8.568 0.935498 10.234 0.881 11.774 0.881L14 0.772003C19.866 0.772003 23.52 1.06266 24.962 1.57131C26.222 2.02546 27.034 3.0791 27.384 4.71404Z" fill="white"/>
</svg>
