<svg width="61" height="55" viewBox="0 0 61 55" fill="none" xmlns="http://www.w3.org/2000/svg">
<path d="M54.162 5.83335H50.8375V0.416687H44.1885V5.83335H17.5926V0.416687H10.9437V5.83335H7.61918C3.92901 5.83335 1.00346 8.27085 1.00346 11.25L0.970215 49.1667C0.970215 50.6033 1.67073 51.981 2.91765 52.9968C4.16458 54.0127 5.85577 54.5834 7.61918 54.5834H54.162C57.8189 54.5834 60.8109 52.1459 60.8109 49.1667V11.25C60.8109 8.27085 57.8189 5.83335 54.162 5.83335ZM54.162 49.1667H7.61918V22.0834H54.162V49.1667ZM20.9171 32.9167H14.2682V27.5H20.9171V32.9167ZM34.2151 32.9167H27.5661V27.5H34.2151V32.9167ZM47.513 32.9167H40.864V27.5H47.513V32.9167ZM20.9171 43.75H14.2682V38.3334H20.9171V43.75ZM34.2151 43.75H27.5661V38.3334H34.2151V43.75ZM47.513 43.75H40.864V38.3334H47.513V43.75Z" fill="black"/>
</svg>
