<svg width="27" height="27" viewBox="0 0 27 27" fill="none" xmlns="http://www.w3.org/2000/svg">
<path d="M22.8918 2.91996C22.8843 2.90198 22.8719 2.88789 22.8567 2.88022C21.1062 1.88725 19.2588 1.17918 17.3609 0.77374C17.3437 0.769777 17.3259 0.772636 17.31 0.78191C17.2942 0.791185 17.2811 0.806403 17.2726 0.8254C17.0211 1.38985 16.7927 1.96963 16.5884 2.56254C14.5426 2.1786 12.4616 2.1786 10.4158 2.56254C10.2101 1.96813 9.97814 1.3882 9.72081 0.8254C9.71198 0.806816 9.69883 0.791948 9.68308 0.782734C9.66732 0.77352 9.64968 0.770386 9.63246 0.77374C7.73436 1.17833 5.8869 1.88645 4.13656 2.88027C4.12158 2.88813 4.10894 2.90154 4.10038 2.91865C0.600057 9.38114 -0.358814 15.6847 0.111576 21.9103C0.112899 21.9255 0.116691 21.9403 0.122725 21.9537C0.12876 21.9671 0.136914 21.9789 0.146703 21.9883C2.18491 23.8541 4.46467 25.2782 6.88869 26.2C6.90576 26.2063 6.92399 26.206 6.94093 26.1992C6.95786 26.1923 6.97269 26.1792 6.98342 26.1616C7.50405 25.2858 7.96536 24.3584 8.36268 23.3889C8.36814 23.3756 8.37125 23.361 8.37182 23.3461C8.37239 23.3312 8.3704 23.3163 8.36598 23.3024C8.36156 23.2885 8.35481 23.276 8.34617 23.2656C8.33754 23.2551 8.32722 23.2471 8.31588 23.242C7.58842 22.8978 6.88416 22.483 6.20969 22.0014C6.19744 21.9925 6.18715 21.98 6.17973 21.965C6.17231 21.95 6.16799 21.933 6.16715 21.9155C6.16631 21.8979 6.16898 21.8804 6.17492 21.8644C6.18086 21.8485 6.18988 21.8345 6.2012 21.8239C6.34312 21.6929 6.48258 21.5578 6.61947 21.4188C6.63148 21.4065 6.64601 21.3987 6.66142 21.3961C6.67683 21.3936 6.69252 21.3964 6.70672 21.4042C11.1254 23.8974 15.9092 23.8974 20.2756 21.4042C20.2899 21.3959 20.3057 21.3927 20.3214 21.395C20.337 21.3974 20.3518 21.4051 20.364 21.4175C20.501 21.5572 20.6409 21.6927 20.7833 21.8239C20.7947 21.8344 20.8038 21.8483 20.8098 21.8642C20.8159 21.8801 20.8186 21.8976 20.8179 21.9151C20.8172 21.9326 20.8129 21.9497 20.8056 21.9647C20.7983 21.9798 20.7881 21.9924 20.7759 22.0014C20.1029 22.4871 19.398 22.9016 18.6687 23.2407C18.6574 23.246 18.6471 23.2542 18.6385 23.2648C18.6299 23.2754 18.6232 23.2881 18.6189 23.3021C18.6146 23.3161 18.6127 23.331 18.6133 23.346C18.614 23.3609 18.6172 23.3756 18.6228 23.3889C19.0267 24.353 19.4874 25.2792 20.001 26.1601C20.0114 26.1781 20.0261 26.1917 20.0431 26.1988C20.0601 26.206 20.0785 26.2063 20.0957 26.1998C22.5241 25.2812 24.8078 23.8569 26.8486 21.9883C26.8585 21.9794 26.8668 21.9679 26.8728 21.9546C26.8789 21.9414 26.8826 21.9267 26.8837 21.9116C27.4468 14.7142 25.9409 8.46227 22.8918 2.91996ZM9.02257 18.1196C7.69222 18.1196 6.59605 16.6102 6.59605 14.7566C6.59605 12.903 7.67096 11.3935 9.02257 11.3935C10.3847 11.3935 11.4703 12.9161 11.449 14.7565C11.449 16.6102 10.3741 18.1196 9.02257 18.1196ZM17.9941 18.1196C16.6638 18.1196 15.5677 16.6102 15.5677 14.7566C15.5677 12.903 16.6426 11.3935 17.9941 11.3935C19.3564 11.3935 20.4419 12.9161 20.4207 14.7565C20.4207 16.6102 19.3564 18.1196 17.9941 18.1196Z" fill="white"/>
</svg>
