<svg width="87" height="67" viewBox="0 0 87 67" fill="none" xmlns="http://www.w3.org/2000/svg">
<path d="M73.5033 5.65861C73.4794 5.61125 73.4399 5.57414 73.3918 5.55393C67.8308 2.93802 61.9623 1.07268 55.9332 0.00457541C55.8784 -0.00586509 55.8218 0.00166681 55.7714 0.0260999C55.7211 0.050533 55.6795 0.0906234 55.6526 0.14067C54.8535 1.62767 54.1281 3.15506 53.4792 4.71702C46.9801 3.70556 40.3694 3.70556 33.8704 4.71702C33.2171 3.1511 32.4801 1.62332 31.6626 0.14067C31.6346 0.091711 31.5928 0.0525439 31.5427 0.0282695C31.4927 0.00399515 31.4366 -0.00426149 31.3819 0.00457541C25.3522 1.07044 19.4833 2.93592 13.923 5.55408C13.8754 5.57476 13.8352 5.61009 13.808 5.65517C2.68845 22.6801 -0.357628 39.2864 1.13667 55.6871C1.14088 55.7273 1.15292 55.7662 1.17209 55.8016C1.19126 55.8369 1.21717 55.8679 1.24826 55.8928C7.72309 60.8079 14.9653 64.5597 22.6657 66.988C22.72 67.0047 22.7779 67.0039 22.8317 66.9859C22.8855 66.9678 22.9326 66.9333 22.9667 66.8869C24.6206 64.5797 26.086 62.1366 27.3482 59.5824C27.3655 59.5473 27.3754 59.5089 27.3772 59.4697C27.379 59.4304 27.3727 59.3912 27.3587 59.3546C27.3446 59.3181 27.3232 59.285 27.2958 59.2575C27.2683 59.2301 27.2355 59.2089 27.1995 59.1954C24.8886 58.2888 22.6513 57.196 20.5087 55.9272C20.4698 55.9037 20.4371 55.8708 20.4136 55.8313C20.39 55.7918 20.3763 55.747 20.3736 55.7008C20.3709 55.6546 20.3794 55.6084 20.3983 55.5663C20.4171 55.5243 20.4458 55.4876 20.4818 55.4596C20.9326 55.1144 21.3756 54.7585 21.8105 54.3923C21.8486 54.3601 21.8948 54.3394 21.9438 54.3327C21.9927 54.3259 22.0426 54.3333 22.0876 54.354C36.1246 60.922 51.3216 60.922 65.1924 54.354C65.2376 54.332 65.288 54.3235 65.3377 54.3297C65.3874 54.3359 65.4343 54.3564 65.4731 54.3888C65.9084 54.757 66.3526 55.114 66.8052 55.4596C66.8413 55.4874 66.8703 55.5238 66.8894 55.5657C66.9086 55.6076 66.9174 55.6537 66.9151 55.6999C66.9127 55.7461 66.8993 55.791 66.876 55.8306C66.8528 55.8703 66.8203 55.9034 66.7816 55.9272C64.6438 57.2067 62.4046 58.2988 60.0876 59.1919C60.0516 59.206 60.0189 59.2276 59.9916 59.2555C59.9644 59.2834 59.9432 59.3168 59.9294 59.3537C59.9156 59.3906 59.9096 59.43 59.9117 59.4694C59.9138 59.5088 59.9241 59.5473 59.9417 59.5824C61.225 62.1224 62.6883 64.5624 64.3199 66.8829C64.353 66.9305 64.3998 66.9662 64.4538 66.985C64.5078 67.0038 64.5662 67.0047 64.6208 66.9876C72.335 64.5675 79.5899 60.8154 86.0728 55.8928C86.1044 55.8691 86.1307 55.8389 86.1499 55.804C86.1692 55.7691 86.1809 55.7305 86.1844 55.6906C87.9734 36.7297 83.1894 20.2594 73.5033 5.65861ZM29.4445 45.7008C25.2183 45.7008 21.7361 41.7246 21.7361 36.8414C21.7361 31.9581 25.1508 27.9816 29.4445 27.9816C33.7717 27.9816 37.2203 31.9927 37.1527 36.8411C37.1527 41.7246 33.7379 45.7008 29.4445 45.7008ZM57.9447 45.7008C53.7187 45.7008 50.2365 41.7246 50.2365 36.8414C50.2365 31.9581 53.6512 27.9816 57.9447 27.9816C62.2723 27.9816 65.7206 31.9927 65.6531 36.8411C65.6531 41.7246 62.2723 45.7008 57.9447 45.7008Z" fill="white"/>
</svg>
