<svg width="26" height="27" viewBox="0 0 26 27" fill="none" xmlns="http://www.w3.org/2000/svg">
<path d="M17.16 13.4883C17.16 14.2931 16.916 15.0798 16.4589 15.749C16.0018 16.4182 15.3521 16.9397 14.592 17.2477C13.8318 17.5557 12.9954 17.6363 12.1884 17.4793C11.3815 17.3223 10.6402 16.9347 10.0584 16.3656C9.47665 15.7965 9.08045 15.0715 8.91993 14.2821C8.75942 13.4928 8.8418 12.6746 9.15666 11.931C9.47152 11.1875 10.0047 10.552 10.6888 10.1048C11.3729 9.65771 12.1772 9.41906 13 9.41906C14.1022 9.42241 15.1584 9.85221 15.9378 10.6146C16.7172 11.377 17.1566 12.4101 17.16 13.4883ZM26 7.89311V19.0834C26 20.9721 25.233 22.7833 23.8677 24.1188C22.5025 25.4543 20.6508 26.2045 18.72 26.2045H7.28C5.34922 26.2045 3.49753 25.4543 2.13226 24.1188C0.766998 22.7833 0 20.9721 0 19.0834V7.89311C0 6.00447 0.766998 4.19319 2.13226 2.85773C3.49753 1.52226 5.34922 0.772003 7.28 0.772003H18.72C20.6508 0.772003 22.5025 1.52226 23.8677 2.85773C25.233 4.19319 26 6.00447 26 7.89311ZM19.24 13.4883C19.24 12.281 18.874 11.1009 18.1884 10.0972C17.5027 9.0934 16.5282 8.31107 15.3879 7.84908C14.2477 7.3871 12.9931 7.26622 11.7826 7.50174C10.5722 7.73726 9.46033 8.31859 8.58765 9.17222C7.71497 10.0259 7.12067 11.1134 6.8799 12.2975C6.63913 13.4815 6.7627 14.7088 7.23499 15.8241C7.70728 16.9394 8.50708 17.8927 9.53324 18.5634C10.5594 19.2341 11.7658 19.5921 13 19.5921C14.655 19.5921 16.2421 18.949 17.4123 17.8043C18.5826 16.6596 19.24 15.1071 19.24 13.4883ZM21.32 6.87581C21.32 6.574 21.2285 6.27898 21.0571 6.02804C20.8857 5.77709 20.642 5.58151 20.357 5.46601C20.0719 5.35052 19.7583 5.3203 19.4557 5.37918C19.153 5.43806 18.8751 5.58339 18.6569 5.7968C18.4387 6.01021 18.2902 6.2821 18.23 6.57811C18.1698 6.87411 18.2007 7.18093 18.3187 7.45976C18.4368 7.7386 18.6368 7.97692 18.8933 8.14459C19.1499 8.31226 19.4515 8.40176 19.76 8.40176C20.1737 8.40176 20.5705 8.24099 20.8631 7.95482C21.1556 7.66865 21.32 7.28051 21.32 6.87581Z" fill="white"/>
</svg>
