<svg width="49" height="57" viewBox="0 0 49 57" fill="none" xmlns="http://www.w3.org/2000/svg">
<path d="M30.2056 0.273766C27.1668 -0.575297 24.7925 1.69564 23.9457 3.8122C22.9733 6.2497 22.1103 7.96002 21.0852 10.0035C20.3454 11.4696 19.6255 12.9458 18.9256 14.4316C17.0011 18.5347 15.0846 21.1591 13.6868 22.7394C13.1786 23.3217 12.6303 23.8674 12.0458 24.3725C11.9132 24.4868 11.7767 24.5965 11.6366 24.7016L11.5718 24.7503L3.98697 29.2313C2.34497 30.2025 1.09707 31.7232 0.462718 33.5258C-0.17163 35.3284 -0.151806 37.2975 0.518706 39.0869L2.6256 44.7094C3.05819 45.8645 3.74747 46.9056 4.64115 47.7538C5.53482 48.602 6.60943 49.235 7.78343 49.6047L29.4844 56.4378C30.7685 56.8424 32.1202 56.9864 33.4605 56.8612C34.8007 56.736 36.1026 56.3443 37.2901 55.7088C38.4776 55.0734 39.5269 54.207 40.3767 53.1604C41.2264 52.1137 41.8596 50.9077 42.2392 49.6128L47.7657 30.7344C48.1203 29.5227 48.1882 28.2449 47.9643 27.0023C47.7403 25.7596 47.2306 24.5865 46.4755 23.5759C45.7204 22.5652 44.7408 21.745 43.6144 21.1802C42.488 20.6154 41.2458 20.3216 39.9865 20.3222H34.3789C34.6463 19.4 34.9178 18.3763 35.169 17.316C35.6997 15.0328 36.1535 12.4288 36.109 10.2553C36.0725 8.23627 35.8659 6.11564 35.0393 4.31595C34.152 2.38627 32.6002 0.935953 30.2097 0.269703L30.2056 0.273766Z" fill="black"/>
</svg>
