<svg width="40" height="31" viewBox="0 0 40 31" fill="none" xmlns="http://www.w3.org/2000/svg">
<path d="M14.7412 0.362061C17.4365 0.871227 21.3819 2.06581 23.5303 2.77081C28.9014 4.63123 30.7374 6.94206 30.7374 12.1512C30.7374 17.2429 27.6124 19.1621 23.628 17.2429V7.76456C23.628 6.68748 23.4327 5.64956 22.378 5.35581C21.5772 5.10123 21.1084 5.84539 21.1084 6.94206V30.6379L14.7412 28.6012V0.362061ZM22.2998 26.5058L32.5538 22.8437C33.7257 22.4325 33.9015 21.845 32.964 21.5316C32.0069 21.2183 30.3077 21.3162 29.1358 21.7275L22.2998 24.1362V20.2979L22.71 20.1608C22.71 20.1608 24.6827 19.4166 27.4366 19.1621C30.2296 18.8487 33.628 19.2012 36.2843 20.2C39.2921 21.1596 39.6437 22.5696 38.882 23.5291C38.1007 24.5083 36.2257 25.1937 36.2257 25.1937L22.2998 30.1875V26.5058ZM3.02241 26.1141C-0.0440125 25.2916 -0.571359 23.4312 0.834898 22.3541C2.1435 21.375 4.35054 20.6896 4.35054 20.6896L13.4912 17.4583V21.14L6.92868 23.5096C5.7568 23.9208 5.58101 24.5083 6.51852 24.8216C7.45602 25.135 9.17478 25.0566 10.3271 24.6258L13.4912 23.49V26.7996L12.8662 26.9171C9.70213 27.4262 6.34274 27.25 3.02241 26.1141Z" fill="white"/>
</svg>
