<svg width="89" height="85" viewBox="0 0 89 85" fill="none" xmlns="http://www.w3.org/2000/svg">
<path d="M0.394043 1.77656C0.394043 1.43293 0.532532 1.10337 0.779045 0.860387C1.02556 0.617403 1.3599 0.480896 1.70852 0.480896H60.5082C76.2349 0.480896 88.9835 13.0896 88.9835 28.6434V33.606C88.9835 34.3216 88.3952 34.9017 87.669 34.9017H71.3145C70.9659 34.9017 70.6316 34.7652 70.3851 34.5222C70.1385 34.2792 70.0001 33.9496 70.0001 33.606V28.6434C70.0001 23.4587 65.7505 19.2558 60.5082 19.2558H20.6921C20.5194 19.2558 20.3485 19.2893 20.189 19.3544C20.0295 19.4195 19.8845 19.515 19.7624 19.6353C19.6404 19.7556 19.5435 19.8985 19.4775 20.0557C19.4114 20.213 19.3774 20.3815 19.3774 20.5516V83.673C19.3774 84.3879 18.7871 84.9732 18.0628 84.9238C8.19164 84.2559 0.394043 76.1251 0.394043 66.1932V1.77656ZM36.5115 38.0309C35.7855 38.0309 35.1924 38.6128 35.2415 39.3267C35.9146 49.0914 44.1366 56.8058 54.1804 56.8058H66.8361C68.5835 56.8058 70.0001 58.2067 70.0001 59.9349V83.6731C70.0001 84.3881 70.5904 84.9734 71.3147 84.9239C81.1859 84.2559 88.9835 76.1251 88.9835 66.1932V59.9349C88.9835 47.8377 79.0677 38.0309 66.8361 38.0309H36.5115Z" fill="white"/>
</svg>
