<svg width="78" height="56" viewBox="0 0 78 56" fill="none" xmlns="http://www.w3.org/2000/svg">
<path d="M49.6868 35C40.3666 35 21.7611 39.655 21.7611 49V56H77.6125V49C77.6125 39.655 59.007 35 49.6868 35ZM18.2704 21V10.5H11.289V21H0.816895V28H11.289V38.5H18.2704V28H28.7426V21M49.6868 28C53.39 28 56.9415 26.525 59.56 23.8995C62.1786 21.274 63.6496 17.713 63.6496 14C63.6496 10.287 62.1786 6.72601 59.56 4.1005C56.9415 1.475 53.39 0 49.6868 0C45.9836 0 42.4321 1.475 39.8136 4.1005C37.1951 6.72601 35.724 10.287 35.724 14C35.724 17.713 37.1951 21.274 39.8136 23.8995C42.4321 26.525 45.9836 28 49.6868 28Z" fill="black"/>
</svg>
