<svg width="22" height="24" viewBox="0 0 22 24" fill="none" xmlns="http://www.w3.org/2000/svg">
<path d="M20.9226 10.1859L3.14984 0.263981C2.77486 0.0584651 2.34479 -0.0304067 1.91689 0.00920189C1.48899 0.0488105 1.08358 0.21502 0.754658 0.485692C0.425735 0.756365 0.188909 1.11865 0.0757213 1.52431C-0.0374659 1.92996 -0.0216415 2.35972 0.121087 2.75636L3.35817 11.9861L0.121087 21.2407C0.00827567 21.5527 -0.0264023 21.8866 0.0199631 22.2144C0.0663284 22.5422 0.192384 22.8544 0.387554 23.1247C0.582723 23.395 0.841312 23.6155 1.14162 23.7678C1.44193 23.9201 1.7752 23.9998 2.11347 24C2.47692 23.9993 2.8341 23.9074 3.1509 23.7331L3.16042 23.7269L20.9268 13.7874C21.2526 13.607 21.5236 13.3452 21.7121 13.0289C21.9007 12.7125 22 12.3528 22 11.9866C22 11.6204 21.9007 11.2608 21.7121 10.9444C21.5236 10.628 21.2526 10.3663 20.9268 10.1859H20.9226ZM2.87911 21.0234L5.6033 13.2401H11.4197C11.7563 13.2401 12.079 13.1093 12.317 12.8764C12.555 12.6436 12.6887 12.3278 12.6887 11.9985C12.6887 11.6693 12.555 11.3535 12.317 11.1206C12.079 10.8878 11.7563 10.757 11.4197 10.757H5.6107L2.88017 2.97259L19.0275 11.9871L2.87911 21.0234Z" fill="white"/>
</svg>
