<svg width="27" height="37" viewBox="0 0 27 37" fill="none" xmlns="http://www.w3.org/2000/svg">
<path d="M13.5 0C11.0625 0 8.95312 0.915365 7.17188 2.74609C5.39062 4.57682 4.5 6.74479 4.5 9.25V13.875C3.23438 13.875 2.16797 14.3206 1.30078 15.2119C0.433594 16.1032 0 17.1992 0 18.5V32.375C0 33.6758 0.433594 34.7718 1.30078 35.6631C2.16797 36.5544 3.23438 37 4.5 37H22.5C23.7656 37 24.832 36.5544 25.6992 35.6631C26.5664 34.7718 27 33.6758 27 32.375V18.5C27 17.1992 26.5664 16.1032 25.6992 15.2119C24.832 14.3206 23.7656 13.875 22.5 13.875V9.25C22.5 6.74479 21.6094 4.57682 19.8281 2.74609C18.0469 0.915365 15.9375 0 13.5 0ZM23.9766 18.5V32.375C23.9766 33.3867 23.4844 33.8926 22.5 33.8926H4.5C3.51562 33.8926 3.02344 33.3867 3.02344 32.375V18.5C3.02344 17.4883 3.51562 16.9824 4.5 16.9824H22.5C23.4844 16.9824 23.9766 17.4883 23.9766 18.5ZM7.52344 13.875V9.25C7.52344 7.5638 8.10938 6.11849 9.28125 4.91406C10.4531 3.70964 11.8594 3.10742 13.5 3.10742C15.1406 3.10742 16.5469 3.70964 17.7188 4.91406C18.8906 6.11849 19.4766 7.5638 19.4766 9.25V13.875H7.52344ZM13.5 18.5C12.2344 18.5 11.168 18.9456 10.3008 19.8369C9.43359 20.7282 9 21.8242 9 23.125C9 24.0885 9.28125 24.9678 9.84375 25.7627C10.4062 26.5576 11.1328 27.1237 12.0234 27.4609V29.2676C12.0234 30.3275 12.5156 30.8574 13.5 30.8574C14.4844 30.8574 14.9766 30.3275 14.9766 29.2676V27.4609C16.9922 26.7383 18 25.293 18 23.125C18 21.8242 17.5664 20.7282 16.6992 19.8369C15.832 18.9456 14.7656 18.5 13.5 18.5ZM13.5 24.6426C12.5156 24.6426 12.0234 24.1367 12.0234 23.125C12.0234 22.1133 12.5156 21.6074 13.5 21.6074C14.4844 21.6074 14.9766 22.1133 14.9766 23.125C14.9766 24.1367 14.4844 24.6426 13.5 24.6426Z" fill="white"/>
</svg>
