<svg width="104" height="104" viewBox="0 0 104 104" fill="none" xmlns="http://www.w3.org/2000/svg">
<g filter="url(#filter0_d_492_9674)">
<path fill-rule="evenodd" clip-rule="evenodd" d="M52 95.2C75.8587 95.2 95.2 75.8587 95.2 52C95.2 28.1413 75.8587 8.8 52 8.8C28.1413 8.8 8.8 28.1413 8.8 52C8.8 75.8587 28.1413 95.2 52 95.2ZM52 97C76.8528 97 97 76.8528 97 52C97 27.1472 76.8528 7 52 7C27.1472 7 7 27.1472 7 52C7 76.8528 27.1472 97 52 97ZM28.0359 58.168C27.1821 57.6592 26.3912 57.0508 25.6841 56.3587C23.5805 54.2486 22.3429 51.5192 22.2367 48.756C22.1305 45.9929 23.1642 43.4161 25.116 41.5786L37.2998 30.12C38.2734 29.1852 39.4547 28.4668 40.7743 28.007C42.094 27.5472 43.5254 27.3553 44.9845 27.4425C46.4046 27.5284 47.823 27.8823 49.1574 28.4837C50.4918 29.0852 51.7158 29.9223 52.7583 30.9465C53.8632 32.0411 54.7413 33.3199 55.3369 34.7018C55.9326 36.0837 56.2327 37.5386 56.2184 38.9743L60.7789 41.7017C62.0107 40.9917 63.4126 40.5529 64.8949 40.4133C66.3772 40.2736 67.9072 40.4363 69.3866 40.8909C70.7754 41.3207 72.0902 42.0018 73.2548 42.8949C74.4194 43.7879 75.4107 44.8751 76.1713 46.0934C76.9473 47.3408 77.4723 48.697 77.7159 50.0837C77.9595 51.4704 77.917 52.8602 77.5909 54.1731L73.5625 70.5514C72.9244 73.1834 71.195 75.3573 68.7478 76.6036C66.3006 77.85 63.332 78.0686 60.4834 77.2124C59.0947 76.7826 57.7799 76.1014 56.6153 75.2084C55.4507 74.3153 54.4593 73.2282 53.6988 72.0098C52.9197 70.7634 52.393 69.407 52.1493 68.0199C51.9055 66.6327 51.9497 65.2424 52.2792 63.9301L52.7695 62.3573L42.2452 56.0634L41.0541 57.1747C40.0796 58.1013 38.8999 58.8124 37.5837 59.2667C36.2675 59.721 34.8412 59.9093 33.3878 59.8207C31.5333 59.7054 29.6901 59.1362 28.0359 58.168ZM48.5922 32.2931C47.5318 31.6633 46.3472 31.2909 45.1539 31.2123C43.2723 31.1086 41.5041 31.7209 40.2363 32.9152L28.0525 44.3737C26.7906 45.5503 26.1182 47.2051 26.1797 48.9825C26.2412 50.76 27.0318 52.5182 28.3815 53.8793C29.0396 54.5259 29.8121 55.0545 30.6544 55.4345C31.4967 55.8144 32.392 56.0382 33.2885 56.0929C34.2215 56.1506 35.1372 56.0296 35.9817 55.7371C36.8262 55.4447 37.5825 54.9867 38.2061 54.39L41.4461 51.3446L57.2324 60.7854L56.1499 65.1211C55.9403 65.9635 55.9124 66.8552 56.0679 67.7451C56.2233 68.635 56.559 69.5055 57.0557 70.3066C57.5399 71.0771 58.1691 71.7647 58.9072 72.3298C59.6454 72.895 60.478 73.3267 61.3574 73.6001C63.1854 74.1445 65.0881 73.9968 66.6523 73.1892C68.2165 72.3816 69.3156 70.9793 69.7109 69.287L73.7209 52.9402C73.9351 52.101 73.9669 51.2112 73.8144 50.3228C73.6619 49.4343 73.3282 48.5649 72.8326 47.7652C72.3485 46.9946 71.7193 46.3071 70.9812 45.7419C70.243 45.1768 69.4104 44.7451 68.531 44.4716C67.4364 44.1454 66.3038 44.0664 65.2271 44.2412C64.1505 44.4161 63.1609 44.8397 62.3405 45.4769L61.315 46.2632L52.0186 40.7036L52.2021 39.4138C52.3538 38.3752 52.2387 37.2902 51.8663 36.2488C51.4939 35.2074 50.875 34.2397 50.0609 33.4259C49.6186 32.9936 49.1249 32.6127 48.5922 32.2931ZM39.9226 43.3573C40.2982 44.048 40.869 44.6381 41.5628 45.053C42.4932 45.6094 43.5785 45.8116 44.58 45.6152C45.5814 45.4188 46.417 44.8398 46.9028 44.0056C47.2651 43.3835 47.4136 42.6523 47.3293 41.9045C47.2451 41.1567 46.932 40.4259 46.4297 39.8045C45.9273 39.1831 45.2582 38.6989 44.507 38.4133C43.7558 38.1277 42.9563 38.0535 42.2095 38.2C41.4627 38.3465 40.8022 38.7071 40.3114 39.2363C39.8207 39.7655 39.5219 40.4395 39.4527 41.173C39.3834 41.9066 39.547 42.6667 39.9226 43.3573ZM65.3591 52.9226C66.3279 53.502 67.5233 53.2675 68.0291 52.3989C68.535 51.5304 68.1598 50.3566 67.191 49.7773C66.2223 49.1979 65.0269 49.4324 64.521 50.301C64.0152 51.1695 64.3904 52.3433 65.3591 52.9226ZM64.3653 58.6897C63.8595 59.5583 62.6641 59.7928 61.6954 59.2134C60.7266 58.6341 60.3514 57.4603 60.8573 56.5918C61.3631 55.7232 62.5585 55.4887 63.5273 56.068C64.496 56.6474 64.8712 57.8211 64.3653 58.6897ZM60.0192 53.9701C60.9879 54.5494 62.1833 54.3149 62.6892 53.4464C63.195 52.5778 62.8198 51.404 61.8511 50.8247C60.8823 50.2454 59.6869 50.4798 59.1811 51.3484C58.6752 52.217 59.0504 53.3908 60.0192 53.9701ZM69.7053 57.6423C69.1994 58.5109 68.0041 58.7453 67.0353 58.166C66.0666 57.5867 65.6914 56.4129 66.1972 55.5443C66.7031 54.6757 67.8985 54.4413 68.8672 55.0206C69.8359 55.5999 70.2112 56.7737 69.7053 57.6423Z" fill="#00FF33"/>
</g>
<defs>
<filter id="filter0_d_492_9674" x="0" y="0" width="104" height="104" filterUnits="userSpaceOnUse" color-interpolation-filters="sRGB">
<feFlood flood-opacity="0" result="BackgroundImageFix"/>
<feColorMatrix in="SourceAlpha" type="matrix" values="0 0 0 0 0 0 0 0 0 0 0 0 0 0 0 0 0 0 127 0" result="hardAlpha"/>
<feOffset/>
<feGaussianBlur stdDeviation="3.5"/>
<feComposite in2="hardAlpha" operator="out"/>
<feColorMatrix type="matrix" values="0 0 0 0 0 0 0 0 0 1 0 0 0 0 0.2 0 0 0 1 0"/>
<feBlend mode="normal" in2="BackgroundImageFix" result="effect1_dropShadow_492_9674"/>
<feBlend mode="normal" in="SourceGraphic" in2="effect1_dropShadow_492_9674" result="shape"/>
</filter>
</defs>
</svg>
