<svg width="18" height="17" viewBox="0 0 18 17" fill="none" xmlns="http://www.w3.org/2000/svg">
<path d="M7.95938 15.0605L7.95867 15.0598C5.65412 12.9356 3.78111 11.2059 2.47841 9.58589C1.18144 7.97297 0.5 6.52834 0.5 4.98244C0.5 2.45222 2.43994 0.5 4.90162 0.5C6.2981 0.5 7.64901 1.16344 8.53 2.20684L8.91204 2.6593L9.29407 2.20684C10.1751 1.16344 11.526 0.5 12.9225 0.5C15.3841 0.5 17.3241 2.45222 17.3241 4.98244C17.3241 6.52834 16.6426 7.97297 15.3457 9.58589C14.043 11.2059 12.17 12.9356 9.86541 15.0598L9.86469 15.0605L8.91204 15.942L7.95938 15.0605Z" stroke="white"/>
</svg>
