<svg width="17" height="17" viewBox="0 0 17 17" fill="none" xmlns="http://www.w3.org/2000/svg">
<path d="M8.5 0C6.81886 0 5.17547 0.498516 3.77766 1.43251C2.37984 2.3665 1.29037 3.69402 0.647028 5.24719C0.00368292 6.80036 -0.164645 8.50943 0.163329 10.1583C0.491303 11.8071 1.30085 13.3217 2.4896 14.5104C3.67834 15.6992 5.1929 16.5087 6.84173 16.8367C8.49057 17.1646 10.1996 16.9963 11.7528 16.353C13.306 15.7096 14.6335 14.6202 15.5675 13.2223C16.5015 11.8245 17 10.1811 17 8.5C16.9976 6.24639 16.1013 4.08576 14.5078 2.49222C12.9142 0.898677 10.7536 0.00237985 8.5 0ZM13.0769 9.15384H8.5C8.32659 9.15384 8.16028 9.08496 8.03766 8.96234C7.91504 8.83972 7.84616 8.67341 7.84616 8.5V3.92308C7.84616 3.74967 7.91504 3.58336 8.03766 3.46074C8.16028 3.33812 8.32659 3.26923 8.5 3.26923C8.67341 3.26923 8.83972 3.33812 8.96234 3.46074C9.08496 3.58336 9.15385 3.74967 9.15385 3.92308V7.84615H13.0769C13.2503 7.84615 13.4166 7.91504 13.5393 8.03766C13.6619 8.16028 13.7308 8.32659 13.7308 8.5C13.7308 8.67341 13.6619 8.83972 13.5393 8.96234C13.4166 9.08496 13.2503 9.15384 13.0769 9.15384Z" fill="#F8F8F8"/>
</svg>
