<svg width="21" height="21" viewBox="0 0 21 21" fill="none" xmlns="http://www.w3.org/2000/svg">
<path d="M21 5.5C21 4.04131 20.4205 2.64236 19.3891 1.61091C18.3576 0.579463 16.9587 0 15.5 0C14.0413 0 12.6424 0.579463 11.6109 1.61091C10.5795 2.64236 10 4.04131 10 5.5C10 6.95869 10.5795 8.35764 11.6109 9.38909C12.6424 10.4205 14.0413 11 15.5 11C16.9587 11 18.3576 10.4205 19.3891 9.38909C20.4205 8.35764 21 6.95869 21 5.5ZM16 6L16.001 8.504C16.001 8.63661 15.9483 8.76379 15.8546 8.85755C15.7608 8.95132 15.6336 9.004 15.501 9.004C15.3684 9.004 15.2412 8.95132 15.1474 8.85755C15.0537 8.76379 15.001 8.63661 15.001 8.504V6H12.496C12.3634 6 12.2362 5.94732 12.1424 5.85355C12.0487 5.75979 11.996 5.63261 11.996 5.5C11.996 5.36739 12.0487 5.24021 12.1424 5.14645C12.2362 5.05268 12.3634 5 12.496 5H15V2.5C15 2.36739 15.0527 2.24021 15.1464 2.14645C15.2402 2.05268 15.3674 2 15.5 2C15.6326 2 15.7598 2.05268 15.8536 2.14645C15.9473 2.24021 16 2.36739 16 2.5V5H18.497C18.6296 5 18.7568 5.05268 18.8506 5.14645C18.9443 5.24021 18.997 5.36739 18.997 5.5C18.997 5.63261 18.9443 5.75979 18.8506 5.85355C18.7568 5.94732 18.6296 6 18.497 6H16ZM18.5 13.75V11.268C19.0486 10.9817 19.5537 10.6187 20 10.19V13.75C20 14.1768 19.9159 14.5994 19.7526 14.9937C19.5893 15.388 19.3499 15.7463 19.0481 16.0481C18.7463 16.3499 18.388 16.5893 17.9937 16.7526C17.5994 16.9159 17.1768 17 16.75 17H11.012L6 20.75C5.81428 20.889 5.59356 20.9736 5.36251 20.9943C5.13146 21.015 4.89922 20.971 4.69176 20.8672C4.4843 20.7634 4.30981 20.6039 4.18782 20.4066C4.06582 20.2093 4.00114 19.982 4.001 19.75V17H3.251C2.82412 17.0001 2.4014 16.9162 2.00697 16.7529C1.61255 16.5896 1.25415 16.3503 0.952256 16.0485C0.65036 15.7466 0.410877 15.3883 0.247487 14.994C0.0840967 14.5996 -2.02073e-08 14.1769 0 13.75V5.25C0 4.38805 0.34241 3.5614 0.951903 2.9519C1.5614 2.34241 2.38805 2 3.25 2H10.022C9.72229 2.46751 9.484 2.97165 9.313 3.5H3.25C2.78587 3.5 2.34075 3.68437 2.01256 4.01256C1.68437 4.34075 1.5 4.78587 1.5 5.25V13.75C1.5 14.716 2.284 15.5 3.25 15.5H5.499V19.25L10.514 15.5H16.75C17.2141 15.5 17.6592 15.3156 17.9874 14.9874C18.3156 14.6592 18.5 14.2141 18.5 13.75Z" fill="white"/>
</svg>
