<svg width="22" height="20" viewBox="0 0 22 20" fill="none" xmlns="http://www.w3.org/2000/svg">
<path d="M4.33333 12H13V10H4.33333V12ZM4.33333 9H17.3333V7H4.33333V9ZM4.33333 6H17.3333V4H4.33333V6ZM0 20V2C0 1.45 0.212333 0.979002 0.637 0.587002C1.06167 0.195002 1.57156 -0.000664969 2.16667 1.69779e-06H19.5C20.0958 1.69779e-06 20.6061 0.196002 21.0307 0.588002C21.4554 0.980002 21.6674 1.45067 21.6667 2V14C21.6667 14.55 21.4543 15.021 21.0297 15.413C20.605 15.805 20.0951 16.0007 19.5 16H4.33333L0 20ZM2.16667 15.175L3.43958 14H19.5V2H2.16667V15.175Z" fill="white"/>
</svg>
