<svg width="375" height="373" viewBox="0 0 375 373" fill="none" xmlns="http://www.w3.org/2000/svg">
<path fill-rule="evenodd" clip-rule="evenodd" d="M187.671 362.039C285.673 362.039 365 283.167 365 186.02C365 88.8727 285.673 10 187.671 10C89.6685 10 10.3418 88.8727 10.3418 186.02C10.3418 283.167 89.6685 362.039 187.671 362.039ZM187.671 372.039C291.13 372.039 375 288.756 375 186.02C375 83.2839 291.13 0 187.671 0C84.2119 0 0.341797 83.2839 0.341797 186.02C0.341797 288.756 84.2119 372.039 187.671 372.039ZM87.9157 211.517C84.3616 209.413 81.0693 206.898 78.1255 204.037C69.3687 195.315 64.2165 184.032 63.7744 172.61C63.3323 161.187 67.6354 150.536 75.7606 142.94L126.48 95.5726C130.533 91.7084 135.451 88.7387 140.944 86.838C146.438 84.9373 152.397 84.1439 158.471 84.5045C164.382 84.8593 170.287 86.3222 175.842 88.8086C181.397 91.295 186.492 94.7553 190.832 98.9893C195.432 103.514 199.087 108.8 201.567 114.513C204.046 120.225 205.296 126.239 205.236 132.174L224.221 143.448C229.348 140.514 235.185 138.7 241.355 138.123C247.526 137.545 253.895 138.218 260.054 140.097C265.835 141.874 271.308 144.689 276.156 148.381C281.004 152.072 285.131 156.567 288.297 161.603C291.528 166.759 293.713 172.365 294.727 178.098C295.742 183.83 295.565 189.575 294.207 195.003L277.437 262.707C274.781 273.587 267.582 282.573 257.394 287.725C247.207 292.877 234.849 293.781 222.991 290.242C217.209 288.465 211.736 285.649 206.888 281.958C202.04 278.266 197.913 273.772 194.747 268.736C191.504 263.583 189.311 257.976 188.297 252.242C187.282 246.508 187.466 240.761 188.837 235.336L190.879 228.834L147.068 202.817L142.109 207.41C138.052 211.241 133.141 214.181 127.662 216.058C122.183 217.936 116.245 218.715 110.195 218.349C102.475 217.872 94.8022 215.519 87.9157 211.517ZM173.489 104.556C169.075 101.952 164.143 100.413 159.176 100.088C151.343 99.6592 143.982 102.19 138.705 107.127L87.9848 154.494C82.7319 159.358 79.9327 166.198 80.1888 173.546C80.4449 180.894 83.7359 188.162 89.3545 193.788C92.094 196.461 95.31 198.646 98.8163 200.217C102.323 201.788 106.05 202.713 109.782 202.939C113.666 203.177 117.478 202.677 120.993 201.468C124.509 200.259 127.657 198.366 130.253 195.899L143.741 183.31L209.457 222.336L204.951 240.259C204.078 243.741 203.962 247.428 204.609 251.106C205.256 254.785 206.654 258.383 208.722 261.695C210.737 264.88 213.356 267.722 216.429 270.058C219.502 272.395 222.968 274.179 226.629 275.31C234.239 277.56 242.16 276.949 248.671 273.611C255.182 270.272 259.758 264.475 261.403 257.48L278.097 189.906C278.988 186.437 279.121 182.759 278.486 179.086C277.851 175.414 276.462 171.82 274.399 168.514C272.383 165.328 269.764 162.486 266.691 160.15C263.619 157.814 260.152 156.029 256.492 154.899C251.935 153.55 247.22 153.224 242.738 153.947C238.256 154.669 234.137 156.421 230.721 159.055L226.452 162.305L187.753 139.323L188.517 133.991C189.148 129.698 188.669 125.212 187.119 120.908C185.568 116.603 182.992 112.602 179.603 109.238C177.762 107.451 175.707 105.877 173.489 104.556ZM137.399 150.293C138.962 153.148 141.338 155.587 144.227 157.302C148.1 159.602 152.618 160.438 156.787 159.626C160.956 158.814 164.434 156.421 166.456 152.972C167.965 150.401 168.583 147.378 168.232 144.287C167.881 141.196 166.578 138.175 164.487 135.606C162.395 133.037 159.61 131.036 156.483 129.855C153.356 128.675 150.028 128.368 146.919 128.973C143.81 129.579 141.06 131.07 139.017 133.257C136.975 135.445 135.73 138.231 135.442 141.263C135.154 144.295 135.835 147.438 137.399 150.293ZM243.288 189.833C247.32 192.228 252.297 191.259 254.402 187.669C256.508 184.078 254.946 179.226 250.914 176.831C246.881 174.436 241.905 175.406 239.799 178.996C237.693 182.587 239.255 187.439 243.288 189.833ZM239.151 213.673C237.045 217.264 232.069 218.233 228.036 215.838C224.003 213.443 222.441 208.591 224.547 205.001C226.653 201.41 231.629 200.441 235.662 202.836C239.694 205.231 241.257 210.083 239.151 213.673ZM221.058 194.163C225.091 196.558 230.067 195.589 232.173 191.998C234.279 188.408 232.717 183.556 228.684 181.161C224.651 178.766 219.675 179.735 217.569 183.326C215.463 186.916 217.025 191.769 221.058 194.163ZM261.38 209.343C259.274 212.934 254.298 213.903 250.265 211.508C246.233 209.113 244.671 204.261 246.777 200.671C248.882 197.08 253.859 196.111 257.891 198.506C261.924 200.901 263.486 205.753 261.38 209.343Z" fill="#2E312D" fill-opacity="0.4"/>
</svg>
