<svg width="61" height="61" viewBox="0 0 61 61" fill="none" xmlns="http://www.w3.org/2000/svg">
<path d="M37.8684 8.97498C37.8684 11.3288 36.9359 13.5862 35.2759 15.2505C33.6159 16.9149 31.3645 17.85 29.017 17.85C26.6694 17.85 24.418 16.9149 22.7581 15.2505C21.0981 13.5862 20.1655 11.3288 20.1655 8.97498C20.1655 6.62118 21.0981 4.36379 22.7581 2.6994C24.418 1.03502 26.6694 0.0999756 29.017 0.0999756C31.3645 0.0999756 33.6159 1.03502 35.2759 2.6994C36.9359 4.36379 37.8684 6.62118 37.8684 8.97498ZM55.5713 10.75C55.5713 12.633 54.8252 14.4389 53.4973 15.7704C52.1693 17.1019 50.3682 17.85 48.4902 17.85C46.6121 17.85 44.811 17.1019 43.483 15.7704C42.155 14.4389 41.409 12.633 41.409 10.75C41.409 8.86694 42.155 7.06103 43.483 5.72952C44.811 4.39801 46.6121 3.64998 48.4902 3.64998C50.3682 3.64998 52.1693 4.39801 53.4973 5.72952C54.8252 7.06103 55.5713 8.86694 55.5713 10.75ZM9.54382 17.85C11.4219 17.85 13.223 17.1019 14.551 15.7704C15.8789 14.4389 16.625 12.633 16.625 10.75C16.625 8.86694 15.8789 7.06103 14.551 5.72952C13.223 4.39801 11.4219 3.64998 9.54382 3.64998C7.66578 3.64998 5.86466 4.39801 4.53669 5.72952C3.20872 7.06103 2.46267 8.86694 2.46267 10.75C2.46267 12.633 3.20872 14.4389 4.53669 15.7704C5.86466 17.1019 7.66578 17.85 9.54382 17.85ZM14.8547 25.8375C14.8547 23.388 16.8374 21.4 19.2804 21.4H38.7536C39.7889 21.3995 40.7916 21.7629 41.5873 22.4271C42.383 23.0913 42.9213 24.0142 43.1085 25.0352C39.5904 25.3694 36.2294 26.6572 33.3856 28.7605C30.5418 30.8638 28.3224 33.7034 26.9653 36.9749C25.6083 40.2464 25.1646 43.8266 25.682 47.3316C26.1993 50.8366 27.6582 54.1344 29.9021 56.8716C27.9716 56.9928 26.0367 56.7162 24.2169 56.0588C22.3971 55.4015 20.7308 54.3773 19.321 53.0495C17.9111 51.7217 16.7874 50.1183 16.0192 48.3383C15.2511 46.5583 14.8548 44.6394 14.8547 42.7V25.8375ZM46.6809 25.0245C50.7136 25.3795 54.3923 26.9699 57.3416 29.4123V25.8375C57.3416 23.388 55.3589 21.4 52.9159 21.4H45.378C46.0861 22.4579 46.5464 23.6933 46.6774 25.0245H46.6809ZM11.3141 25.8375C11.3141 24.1938 11.8098 22.6709 12.656 21.4H5.1181C2.6751 21.4 0.692383 23.388 0.692383 25.8375V39.15C0.692218 40.6698 1.01648 42.1721 1.64339 43.5558C2.27029 44.9396 3.18532 46.1727 4.32698 47.1725C5.46864 48.1723 6.81049 48.9154 8.26237 49.3521C9.71425 49.7888 11.2425 49.9088 12.7445 49.7041C11.7972 47.4914 11.3105 45.108 11.3141 42.7V25.8375ZM60.8822 44.475C60.8822 48.7118 59.2036 52.7751 56.2156 55.771C53.2277 58.7669 49.1752 60.45 44.9496 60.45C40.724 60.45 36.6715 58.7669 33.6835 55.771C30.6956 52.7751 29.017 48.7118 29.017 44.475C29.017 40.2381 30.6956 36.1748 33.6835 33.1789C36.6715 30.1831 40.724 28.5 44.9496 28.5C49.1752 28.5 53.2277 30.1831 56.2156 33.1789C59.2036 36.1748 60.8822 40.2381 60.8822 44.475ZM46.7199 37.375C46.7199 36.9042 46.5334 36.4527 46.2014 36.1199C45.8694 35.787 45.4191 35.6 44.9496 35.6C44.4801 35.6 44.0298 35.787 43.6978 36.1199C43.3658 36.4527 43.1793 36.9042 43.1793 37.375V42.7H37.8684C37.3989 42.7 36.9486 42.887 36.6166 43.2199C36.2846 43.5527 36.0981 44.0042 36.0981 44.475C36.0981 44.9457 36.2846 45.3972 36.6166 45.7301C36.9486 46.063 37.3989 46.25 37.8684 46.25H43.1793V51.575C43.1793 52.0457 43.3658 52.4972 43.6978 52.8301C44.0298 53.163 44.4801 53.35 44.9496 53.35C45.4191 53.35 45.8694 53.163 46.2014 52.8301C46.5334 52.4972 46.7199 52.0457 46.7199 51.575V46.25H52.0307C52.5002 46.25 52.9505 46.063 53.2825 45.7301C53.6145 45.3972 53.801 44.9457 53.801 44.475C53.801 44.0042 53.6145 43.5527 53.2825 43.2199C52.9505 42.887 52.5002 42.7 52.0307 42.7H46.7199V37.375Z" fill="white"/>
</svg>
