<svg width="54" height="43" viewBox="0 0 54 43" fill="none" xmlns="http://www.w3.org/2000/svg">
<path d="M7.39461 35.8333C6.07313 35.8333 4.94146 35.3651 3.99961 34.4287C3.05775 33.4922 2.58762 32.3678 2.58923 31.0555V4.77778C2.58923 3.46389 3.06015 2.33873 4.00201 1.40228C4.94387 0.465837 6.07473 -0.00158854 7.39461 4.05584e-06H45.8377C47.1592 4.05584e-06 48.2909 0.468226 49.2327 1.40467C50.1746 2.34111 50.6447 3.46548 50.6431 4.77778V31.0555C50.6431 32.3694 50.1722 33.4946 49.2303 34.431C48.2885 35.3675 47.1576 35.8349 45.8377 35.8333H7.39461ZM7.39461 31.0555H45.8377V4.77778H7.39461V31.0555ZM2.58923 43C1.90846 43 1.33742 42.7707 0.876105 42.312C0.414788 41.8533 0.18493 41.2864 0.186532 40.6111C0.186532 39.9342 0.41719 39.3665 0.878508 38.9078C1.33982 38.4492 1.91006 38.2206 2.58923 38.2222H50.6431C51.3239 38.2222 51.8949 38.4515 52.3562 38.9102C52.8175 39.3689 53.0474 39.9358 53.0458 40.6111C53.0458 41.288 52.8151 41.8557 52.3538 42.3144C51.8925 42.773 51.3223 43.0016 50.6431 43H2.58923Z" fill="white"/>
</svg>
