<svg width="39" height="38" viewBox="0 0 39 38" fill="none" xmlns="http://www.w3.org/2000/svg">
<path d="M8.56801 3.268C8.70065 3.154 8.8333 3.04 8.92805 2.964C11.8842 1.045 15.333 0 19.1229 0C22.6854 0 26.0205 0.95 28.863 2.698C29.0714 2.85 29.621 3.211 29.9242 3.572C27.1765 0.532 19.1229 7.03 19.1229 7.03C16.2805 4.883 13.7602 3.42 11.8463 2.85C10.2356 2.451 9.13649 2.85 8.62486 3.23M33.0319 6.099C32.9371 6.004 32.8424 5.909 32.7666 5.814C32.0844 5.054 31.2127 4.864 30.4926 4.921C29.7536 5.149 26.5132 6.308 22.5338 10.089C22.5338 10.089 27.0249 14.459 29.7726 18.924C32.5202 23.389 34.1499 26.904 33.1456 31.787C36.1775 28.405 38.0725 23.921 38.0725 19C38.0725 14.022 36.1775 9.5 33.0319 6.099ZM26.1911 20.824C24.9594 19.456 23.1592 17.499 20.7526 15.105C20.2409 14.592 19.6914 14.06 19.1229 13.49C19.1229 13.49 18.2323 14.364 17.0953 15.523C15.6362 16.986 13.7602 18.905 12.699 20.026C10.842 22.021 5.49818 28.291 5.19499 31.806C5.19499 31.806 3.96327 29.032 6.6162 22.591C8.32166 18.392 13.438 12.084 15.6172 10.032C15.6172 10.032 13.6654 7.866 11.202 6.365L11.1072 6.308C9.91342 5.605 8.62486 5.054 7.37419 4.978C6.10457 5.073 5.30868 6.004 5.30868 6.004C2.00443 9.51946 0.167021 14.1694 0.173356 19C0.173356 24.0391 2.16982 28.8718 5.72355 32.435C7.48318 34.1993 9.57216 35.5989 11.8712 36.5537C14.1703 37.5086 16.6344 38 19.1229 38C24.6751 38 29.6778 35.606 33.1456 31.787C33.1456 31.787 32.7476 29.26 30.1894 25.65C29.602 24.833 27.4039 22.211 26.1911 20.824Z" fill="white"/>
</svg>
